<?xml version="1.0" encoding="utf-8"?>
<!-- Generator: Adobe Illustrator 22.0.1, SVG Export Plug-In . SVG Version: 6.00 Build 0)  -->
<svg version="1.1" id="Layer_1" xmlns="http://www.w3.org/2000/svg" xmlns:xlink="http://www.w3.org/1999/xlink" x="0px" y="0px"
	 viewBox="0 0 512 512" style="enable-background:new 0 0 512 512;" xml:space="preserve">
<style type="text/css">
	.st0{fill:#424243;stroke:#000000;stroke-miterlimit:10;}
	.st1{fill:#FFFFFF;}
	.st2{fill:#F58220;}
	.st3{fill:#414142;}
</style>
<rect x="-19.2" y="-17.2" class="st0" width="548.9" height="544.4"/>
<g>
	<circle class="st1" cx="241.8" cy="180.8" r="23.2"/>
	<circle class="st1" cx="310.6" cy="185.6" r="45.2"/>
	<circle class="st1" cx="178.3" cy="185.6" r="45.2"/>
	<g>
		<g>
			<path class="st1" d="M57.4,347.6c0-10-34.8-10.5-34.8-32c0-15.3,12.8-22.2,27.6-22.2c6.5,0,13.5,1,20,4.4c3.4,1.9,5,5,5,8
				c0,4.1-3,8.4-8.6,8.4c-6.5,0-11.5-4.1-18.8-4.1c-3.2,0-5.7,1.1-5.7,4.5c0,8.6,35.5,10.8,35.5,31.4c0,16.5-14.7,22.8-28.3,22.8
				c-9.5,0-16.8-3-23.8-7.2c-2.6-1.9-3.9-5-3.9-8c0-5.6,4.5-8.2,9-8.2c7.5,0,11.1,6.9,20.8,6.9C54.8,352.1,57.4,350.8,57.4,347.6z"
				/>
			<path class="st1" d="M89.3,304.1c0-6.5,3-9.9,9.5-9.9c6.6,0,9.7,3.4,9.7,9.9c5.4-7.4,11.5-10,18.7-10c12.3,0,25.4,12.7,25.4,37.2
				c0,20.5-14.7,37.5-28.6,37.5c-6.5,0-14.1-3.7-17.3-10.3v26.9c0,5.5-5.5,7.6-8.1,7.6c-6.2,0-9.4-3.4-9.4-10V304.1z M133,331.5
				c0-8.6-2.9-19.6-11.1-19.6c-9,0-13,10.2-13,19.1c0,9.4,4,19,13,19C130.1,349.9,133,340.2,133,331.5z"/>
			<path class="st1" d="M228.7,331.5c0,19.7-11.3,37.2-32.4,37.2c-21.3,0-32.4-18.5-32.4-37.9c0-19.3,11.1-36.5,32.4-36.5
				C217.5,294.2,228.7,312.3,228.7,331.5z M183.6,330.1c0,8.7,3.9,21.1,12.7,21.1c8.9,0,12.7-10.1,12.7-19c0-8.7-3.9-20.3-12.7-20.3
				C187.5,311.9,183.6,321.1,183.6,330.1z"/>
			<path class="st1" d="M245.7,296.3v-4.9c0-6.2,3.2-9.5,9.6-9.5c6.5,0,9.7,3.2,9.7,9.5v4.9h5.4c6.6,0,10,1.6,10,8.1
				c0,6.2-3.1,8-9.7,8h-5.6v29.7c0,5.2,0.2,7.7,2.6,7.7c6.7,0,10.4,3.1,10.4,9.4c0,6.1-3.6,9.4-10.4,9.4c-17.8,0-21.9-10-21.9-26.4
				v-29.9c-5-0.5-8.7-2.2-8.7-7.9C237,298.8,240.6,296.9,245.7,296.3z"/>
			<path class="st1" d="M299.5,296.3v-4.9c0-6.2,3.2-9.5,9.6-9.5c6.5,0,9.7,3.2,9.7,9.5v4.9h5.4c6.6,0,10,1.6,10,8.1
				c0,6.2-3.1,8-9.7,8h-5.6v29.7c0,5.2,0.2,7.7,2.6,7.7c6.7,0,10.3,3.1,10.3,9.4c0,6.1-3.6,9.4-10.3,9.4c-17.8,0-21.9-10-21.9-26.4
				v-29.9c-5-0.5-8.7-2.2-8.7-7.9C290.8,298.8,294.4,296.9,299.5,296.3z"/>
			<path class="st1" d="M405.9,326c0,9.6-5.9,9.6-15.5,9.6h-28.6c0,11.2,11.1,15.1,16.5,15.1c9.6,0,13.6-7.7,20.2-7.7
				c4,0,7.1,2.5,7.1,8.2c0,2.2-0.5,4-2.1,5.7c-6.2,7.7-15.5,12-26.9,12c-21.9,0-34.2-17.5-34.2-38c0-19,11.5-37,32.3-37
				C394.8,293.8,405.9,306.7,405.9,326z M385.9,322.6c0-8-5.5-11.8-11-11.8c-5.7,0-12.1,4.1-12.1,11.8H385.9z"/>
			<path class="st1" d="M420.2,305.2c0-6.7,3.2-10,9.6-10c3.9,0,7.7,2.4,8,8.2c2.1-4.1,10.2-9.2,15.5-9.2c10,0,13.7,5.5,13.7,10.6
				c0,5.1-4.1,9.7-9.9,9.7c-1.7,0-3.4-0.1-4.6-0.4c-0.9-0.1-1.6-0.4-2.9-0.4c-4.7,0-10.2,3.9-10.2,9.4v34.8c0,6.4-3,9.6-9.6,9.6
				c-6.4,0-9.6-3.2-9.6-9.6V305.2z"/>
		</g>
		<g>
			<path class="st2" d="M486.9,365.8c0-1,0.7-1.7,1.7-1.7c1,0,1.7,0.8,1.7,1.7c0,0.9-0.8,1.7-1.7,1.7
				C487.7,367.5,486.9,366.8,486.9,365.8z"/>
			<path class="st2" d="M484.8,359.5c1.6,0,2.8-1.1,2.8-2.4c0-0.5-0.1-1-0.4-1.4c-0.2-0.2-0.2-0.5-0.2-0.7c0-0.7,0.6-1.4,1.4-1.4
				c0.6,0,1,0.3,1.3,0.8c0.6,0.9,0.8,1.9,0.8,2.8c0,3-2.5,5.4-5.8,5.4c-3.4,0-5.7-2.5-5.7-5.4c0-0.7,0.1-1.6,0.4-2.4
				c0.3-0.6,0.8-1.1,1.4-1.1c0.9,0,1.4,0.6,1.4,1.4c0,0.6-0.3,1.3-0.3,2.1C482,358.5,483.1,359.5,484.8,359.5z"/>
			<path class="st2" d="M484.8,341.7c3,0,5.7,1.7,5.7,5c0,3.3-2.8,5-5.8,5c-3,0-5.6-1.7-5.6-5C479,343.5,481.8,341.7,484.8,341.7z
				 M484.6,348.7c1.3,0,3.3-0.6,3.3-2c0-1.4-1.6-2-2.9-2c-1.3,0-3.1,0.6-3.1,2C481.8,348.1,483.2,348.7,484.6,348.7z"/>
			<path class="st2" d="M480.8,339.4c-0.8,0-1.5-0.5-1.5-1.4c0-1,0.7-1.5,1.3-1.5c-0.8-0.7-1.4-1.9-1.4-3.1c0-1,0.5-2,1.6-2.5
				c-1-0.6-1.6-1.8-1.6-3.1c0-1.6,1.1-3.2,3.8-3.2h5.9c1,0,1.5,0.5,1.5,1.5c0,1-0.5,1.5-1.5,1.5h-5.4c-1.2,0-1.7,0.7-1.7,1.4
				c0,0.7,0.5,1.4,1.4,1.5h5.7c1,0,1.5,0.5,1.5,1.5c0,1-0.5,1.5-1.5,1.5h-5.4c-1.2,0-1.7,0.7-1.7,1.4c0,0.8,0.6,1.5,1.7,1.5h5.4
				c1,0,1.5,0.5,1.5,1.5c0,1-0.5,1.4-1.5,1.4H480.8z"/>
			<path class="st2" d="M486.9,320.5c0-1,0.7-1.7,1.7-1.7c1,0,1.7,0.8,1.7,1.7c0,0.9-0.8,1.7-1.7,1.7
				C487.7,322.2,486.9,321.4,486.9,320.5z"/>
			<path class="st2" d="M480.8,316.5c-0.8,0-1.5-0.5-1.5-1.4c0-1,0.7-1.5,1.3-1.5c-0.8-0.7-1.4-1.9-1.4-3.1c0-1,0.5-2,1.6-2.5
				c-1-0.6-1.6-1.8-1.6-3.1c0-1.6,1.1-3.2,3.8-3.2h5.9c1,0,1.5,0.5,1.5,1.5c0,1-0.5,1.5-1.5,1.5h-5.4c-1.2,0-1.7,0.7-1.7,1.4
				c0,0.7,0.5,1.4,1.4,1.5h5.7c1,0,1.5,0.5,1.5,1.5c0,1-0.5,1.5-1.5,1.5h-5.4c-1.2,0-1.7,0.7-1.7,1.4c0,0.8,0.6,1.5,1.7,1.5h5.4
				c1,0,1.5,0.5,1.5,1.5c0,1-0.5,1.4-1.5,1.4H480.8z"/>
			<path class="st2" d="M479.4,298.4h-0.7c-1,0-1.5-0.5-1.5-1.5c0-1,0.5-1.5,1.5-1.5h0.7v-0.8c0-1,0.3-1.5,1.3-1.5
				c1,0,1.2,0.5,1.2,1.5v0.9h4.6c0.8,0,1.2,0,1.2-0.4c0-1,0.5-1.6,1.4-1.6c0.9,0,1.4,0.6,1.4,1.6c0,2.8-1.5,3.4-4.1,3.4h-4.6
				c-0.1,0.8-0.3,1.3-1.2,1.3C479.8,299.8,479.5,299.2,479.4,298.4z"/>
		</g>
	</g>
	<g>
		<g>
			<path class="st2" d="M322.6,128.5c-7.1-7.1-17-11.5-27.9-11.5c-13.1,0-24.7,6.4-31.9,16.2c-3.8,6.3-10.7,10.6-18.6,10.7
				c-7.9-0.1-14.8-4.3-18.6-10.7c-7.2-9.8-18.8-16.2-31.9-16.2c-10.9,0-20.7,4.4-27.9,11.5c-26.5,5.6-46.3,29-46.3,57.1
				c0,32.2,26.1,58.4,58.4,58.4c19.9,0,37.5-10,48-25.2c3.9-6.1,10.6-10.1,18.3-10.2c7.7,0.1,14.5,4.1,18.3,10.2
				c10.5,15.2,28.1,25.2,48,25.2c32.2,0,58.4-26.1,58.4-58.4C368.9,157.5,349.1,134,322.6,128.5z M177.8,225.1
				c-21.8,0-39.5-17.7-39.5-39.5c0-21.8,17.7-39.5,39.5-39.5c21.8,0,39.5,17.7,39.5,39.5C217.4,207.4,199.7,225.1,177.8,225.1z
				 M244.2,190.7c-5.7,0-10.2-4.6-10.2-10.2c0-5.7,4.6-10.2,10.2-10.2c5.7,0,10.2,4.6,10.2,10.2
				C254.4,186.1,249.8,190.7,244.2,190.7z M310.6,225.1c-21.8,0-39.5-17.7-39.5-39.5c0-21.8,17.7-39.5,39.5-39.5
				c21.8,0,39.5,17.7,39.5,39.5C350.1,207.4,332.4,225.1,310.6,225.1z"/>
			<path class="st3" d="M177.8,158.6c-14.9,0-27,12.1-27,27c0,14.9,12.1,27,27,27c14.9,0,27-12.1,27-27
				C204.8,170.7,192.7,158.6,177.8,158.6z M167.9,181.3c-3.2,0-5.7-2.6-5.7-5.7c0-3.2,2.6-5.7,5.7-5.7c3.2,0,5.7,2.6,5.7,5.7
				C173.6,178.8,171,181.3,167.9,181.3z"/>
			<path class="st3" d="M310.5,158.6c-14.9,0-27,12.1-27,27c0,14.9,12.1,27,27,27c14.9,0,27-12.1,27-27
				C337.5,170.7,325.4,158.6,310.5,158.6z M300.5,181.3c-3.2,0-5.7-2.6-5.7-5.7c0-3.2,2.6-5.7,5.7-5.7c3.2,0,5.7,2.6,5.7,5.7
				C306.2,178.8,303.7,181.3,300.5,181.3z"/>
		</g>
		<g>
			<path class="st3" d="M358.7,119h-0.3c-0.6,0-1-0.3-1-1c0-0.6,0.3-1,1-1h2.6c0.7,0,1,0.3,1,1c0,0.6-0.3,1-1,1h-0.3v3.8
				c0,0.7-0.3,1.1-1,1.1c-0.7,0-1-0.3-1-1.1V119z M365.4,120.1l0.5-2.2c0.2-0.6,0.6-0.9,1.2-0.9c0.6,0,1,0.4,1.1,1.1l0.7,4.7v0.1
				c0,0.6-0.4,1-1,1c-0.6,0-0.9-0.3-1-0.9l-0.2-2.7c-0.1,0.5-0.3,2.3-0.5,2.8c-0.2,0.5-0.5,0.8-1,0.8c-0.4,0-0.8-0.3-1-0.8l-0.4-2.7
				l-0.2,2.6c-0.1,0.6-0.4,0.9-1,0.9c-0.6,0-0.9-0.3-0.9-1v-0.1l0.7-4.7c0.1-0.7,0.5-1.1,1.1-1.1c0.6,0,1,0.3,1.2,0.9L365.4,120.1z"
				/>
		</g>
	</g>
</g>
</svg>
